<svg xmlns="http://www.w3.org/2000/svg" version="1.1" xmlns:xlink="http://www.w3.org/1999/xlink" width="200px" height="200px"><svg xmlns="http://www.w3.org/2000/svg" version="1.1" width="200px" height="200px" style="shape-rendering:geometricPrecision; text-rendering:geometricPrecision; image-rendering:optimizeQuality; fill-rule:evenodd; clip-rule:evenodd" xmlns:xlink="http://www.w3.org/1999/xlink">
<g><path style="opacity:1" fill="#f8fff2" d="M 84.5,-0.5 C 84.8333,-0.5 85.1667,-0.5 85.5,-0.5C 85.3147,0.170143 84.9813,0.170143 84.5,-0.5 Z"></path></g>
<g><path style="opacity:1" fill="#fbfff0" d="M 125.5,-0.5 C 125.833,-0.5 126.167,-0.5 126.5,-0.5C 126.315,0.170143 125.981,0.170143 125.5,-0.5 Z"></path></g>
<g><path style="opacity:0.133" fill="#fffeeb" d="M 105.5,-0.5 C 105.833,-0.5 106.167,-0.5 106.5,-0.5C 107.007,0.85892 108.007,1.85892 109.5,2.5C 107.833,3.83333 106.167,3.83333 104.5,2.5C 105.127,1.58317 105.461,0.583168 105.5,-0.5 Z"></path></g>
<g><path style="opacity:0.122" fill="#fefbd6" d="M 100.5,3.5 C 101.748,4.3339 102.415,5.66723 102.5,7.5C 102.415,9.33277 101.748,10.6661 100.5,11.5C 100.5,8.83333 100.5,6.16667 100.5,3.5 Z"></path></g>
<g><path style="opacity:0.379" fill="#fcffec" d="M 67.5,11.5 C 68.6935,11.9704 69.3601,12.9704 69.5,14.5C 69.1667,15.5 68.8333,16.5 68.5,17.5C 67.5344,15.604 67.2011,13.604 67.5,11.5 Z"></path></g>
<g><path style="opacity:0.027" fill="#fdfbd8" d="M 79.5,3.5 C 79.1788,5.04814 78.1788,5.71481 76.5,5.5C 76.5,10.1667 76.5,14.8333 76.5,19.5C 76.1667,19.5 75.8333,19.5 75.5,19.5C 75.7706,15.5804 75.4372,11.5804 74.5,7.5C 74.4056,4.49925 75.7389,2.49925 78.5,1.5C 79.2975,1.95689 79.6309,2.62356 79.5,3.5 Z"></path></g>
<g><path style="opacity:0.004" fill="#fbffee" d="M 35.5,15.5 C 37.337,15.6395 37.6704,16.3061 36.5,17.5C 35.7025,17.0431 35.3691,16.3764 35.5,15.5 Z"></path></g>
<g><path style="opacity:1" fill="#f9e17b" d="M 79.5,3.5 C 86.5,3.5 93.5,3.5 100.5,3.5C 100.5,6.16667 100.5,8.83333 100.5,11.5C 98.8333,11.5 97.1667,11.5 95.5,11.5C 95.5,10.1667 95.5,8.83333 95.5,7.5C 91.1161,7.17443 86.7828,7.50776 82.5,8.5C 85.4281,9.48408 88.4281,9.81741 91.5,9.5C 91.7076,11.9201 91.3742,14.2534 90.5,16.5C 91.4565,18.0754 92.1231,19.742 92.5,21.5C 90.0842,20.0318 87.4175,19.3651 84.5,19.5C 81.8333,19.5 79.1667,19.5 76.5,19.5C 76.5,14.8333 76.5,10.1667 76.5,5.5C 78.1788,5.71481 79.1788,5.04814 79.5,3.5 Z"></path></g>
<g><path style="opacity:1" fill="#faf4cc" d="M 143.5,19.5 C 142.167,19.5 140.833,19.5 139.5,19.5C 140.835,13.4711 138.502,10.8044 132.5,11.5C 133.152,10.2749 134.319,9.60826 136,9.5C 139.356,9.95958 141.856,11.6263 143.5,14.5C 142.833,15.1667 142.167,15.8333 141.5,16.5C 142.612,17.2652 143.279,18.2652 143.5,19.5 Z"></path></g>
<g><path style="opacity:0.752" fill="#fffce5" d="M 116.5,11.5 C 118.693,13.4432 120.027,15.6098 120.5,18C 123.447,17.8481 126.447,17.6815 129.5,17.5C 129.386,14.784 130.386,12.784 132.5,11.5C 132.5,14.1667 132.5,16.8333 132.5,19.5C 127.5,19.5 122.5,19.5 117.5,19.5C 117.599,16.7628 117.265,14.0961 116.5,11.5 Z"></path></g>
<g><path style="opacity:1" fill="#fae285" d="M 47.5,19.5 C 56.5,19.5 65.5,19.5 74.5,19.5C 74.6427,21.2624 74.3094,22.9291 73.5,24.5C 71.7045,25.1414 70.2045,26.1414 69,27.5C 68.5026,30.146 68.3359,32.8127 68.5,35.5C 62.9076,35.6516 57.4076,34.9849 52,33.5C 46.1986,34.3431 46.3653,35.0097 52.5,35.5C 52.5,38.1667 52.5,40.8333 52.5,43.5C 49.8333,43.5 47.1667,43.5 44.5,43.5C 44.5,46.1667 44.5,48.8333 44.5,51.5C 41.8333,51.5 39.1667,51.5 36.5,51.5C 36.8399,48.8559 36.1733,46.5225 34.5,44.5C 30.2172,43.5078 25.8839,43.1744 21.5,43.5C 20.7347,40.9039 20.4013,38.2372 20.5,35.5C 25.6407,35.6548 30.6407,34.9881 35.5,33.5C 36.3764,33.6309 37.0431,33.2975 37.5,32.5C 36.6906,30.9291 36.3573,29.2624 36.5,27.5C 39.1667,27.5 41.8333,27.5 44.5,27.5C 44.144,24.224 45.144,21.5573 47.5,19.5 Z"></path></g>
<g><path style="opacity:1" fill="#f8e394" d="M 95.5,11.5 C 92.4507,16.711 94.1174,19.3777 100.5,19.5C 105.834,19.5349 107.834,16.8682 106.5,11.5C 107.5,11.5 108.5,11.5 109.5,11.5C 109.238,10.0222 109.571,8.68884 110.5,7.5C 111.832,9.83292 113.832,11.1663 116.5,11.5C 117.265,14.0961 117.599,16.7628 117.5,19.5C 114.102,19.1796 110.768,19.513 107.5,20.5C 110.167,21.1667 112.833,21.8333 115.5,22.5C 114.388,23.2652 113.721,24.2652 113.5,25.5C 113.167,25.5 112.833,25.5 112.5,25.5C 109.753,25.8134 107.086,25.48 104.5,24.5C 104.167,23.8333 103.833,23.1667 103.5,22.5C 99.8927,21.5108 96.226,21.1774 92.5,21.5C 92.1231,19.742 91.4565,18.0754 90.5,16.5C 91.3742,14.2534 91.7076,11.9201 91.5,9.5C 88.4281,9.81741 85.4281,9.48408 82.5,8.5C 86.7828,7.50776 91.1161,7.17443 95.5,7.5C 95.5,8.83333 95.5,10.1667 95.5,11.5 Z"></path></g>
<g><path style="opacity:1" fill="#f8eab8" d="M 167.5,19.5 C 169.777,18.629 172.11,18.9623 174.5,20.5C 173.516,22.5979 173.849,24.5979 175.5,26.5C 173.955,27.4519 172.288,27.7852 170.5,27.5C 170.662,25.4727 170.495,23.4727 170,21.5C 169.583,20.244 168.75,19.5774 167.5,19.5 Z"></path></g>
<g><path style="opacity:0.448" fill="#fdfada" d="M 47.5,19.5 C 45.144,21.5573 44.144,24.224 44.5,27.5C 41.8333,27.5 39.1667,27.5 36.5,27.5C 36.3573,29.2624 36.6906,30.9291 37.5,32.5C 37.0431,33.2975 36.3764,33.6309 35.5,33.5C 34.5269,30.87 34.1935,28.37 34.5,26C 37.146,25.5026 39.8127,25.3359 42.5,25.5C 42.0298,22.0657 43.1965,19.399 46,17.5C 47.0299,17.8361 47.5299,18.5028 47.5,19.5 Z"></path></g>
<g><path style="opacity:1" fill="#fefff2" d="M 29.5,32.5 C 30.8333,33.1667 30.8333,33.1667 29.5,32.5 Z"></path></g>
<g><path style="opacity:1" fill="#f9fada" d="M 167.5,27.5 C 165.845,30.0843 165.512,32.7509 166.5,35.5C 164.879,35.2131 163.879,34.2131 163.5,32.5C 164.309,30.9291 164.643,29.2624 164.5,27.5C 165.5,27.5 166.5,27.5 167.5,27.5 Z"></path></g>
<g><path style="opacity:1" fill="#fadc68" d="M 84.5,19.5 C 87.4175,19.3651 90.0842,20.0318 92.5,21.5C 92.2924,25.6218 91.7924,29.6218 91,33.5C 91.5,34 92,34.5 92.5,35C 95.4816,35.498 98.4816,35.6646 101.5,35.5C 101.336,38.1873 101.503,40.854 102,43.5C 103.049,45.1066 104.549,45.7733 106.5,45.5C 106.5,47.5 106.5,49.5 106.5,51.5C 99.1667,51.5 91.8333,51.5 84.5,51.5C 84.2924,53.9201 84.6258,56.2534 85.5,58.5C 84.675,59.3857 83.675,59.719 82.5,59.5C 82.6658,54.8215 82.4992,50.1548 82,45.5C 81.5831,44.244 80.7498,43.5774 79.5,43.5C 78.8166,41.8235 77.4832,41.1568 75.5,41.5C 75.5,40.1667 75.5,38.8333 75.5,37.5C 77.4832,37.8432 78.8166,37.1765 79.5,35.5C 78.6649,34.0568 77.3316,33.0568 75.5,32.5C 75.8655,31.0981 76.6988,30.0981 78,29.5C 79.3002,30.7073 80.8002,31.3739 82.5,31.5C 83.1035,28.3748 84.4368,25.5415 86.5,23C 85.1772,22.1841 84.5106,21.0174 84.5,19.5 Z"></path></g>
<g><path style="opacity:1" fill="#fbe184" d="M 92.5,21.5 C 96.226,21.1774 99.8927,21.5108 103.5,22.5C 103.833,23.1667 104.167,23.8333 104.5,24.5C 107.086,25.48 109.753,25.8134 112.5,25.5C 117.1,27.1312 122.1,28.1312 127.5,28.5C 126.675,29.3857 125.675,29.719 124.5,29.5C 123.167,34.1667 123.167,38.8333 124.5,43.5C 128.335,44.0035 128.335,45.0035 124.5,46.5C 127.167,47.8333 127.167,49.1667 124.5,50.5C 124.957,51.2975 125.624,51.6309 126.5,51.5C 126.62,55.0528 126.286,58.7194 125.5,62.5C 125.444,64.6397 124.777,66.3064 123.5,67.5C 123.5,62.1667 123.5,56.8333 123.5,51.5C 121.167,51.5 118.833,51.5 116.5,51.5C 116.5,48.8333 116.5,46.1667 116.5,43.5C 113.833,43.5 111.167,43.5 108.5,43.5C 108.5,40.8333 108.5,38.1667 108.5,35.5C 106.167,35.5 103.833,35.5 101.5,35.5C 98.4816,35.6646 95.4816,35.498 92.5,35C 92,34.5 91.5,34 91,33.5C 91.7924,29.6218 92.2924,25.6218 92.5,21.5 Z"></path></g>
<g><path style="opacity:0.76" fill="#fefde2" d="M 178.5,43.5 C 176.5,43.5 174.5,43.5 172.5,43.5C 173.036,40.3019 172.369,37.6353 170.5,35.5C 171.751,33.439 173.418,33.1057 175.5,34.5C 172.833,35.8333 172.833,37.1667 175.5,38.5C 175.291,39.086 174.957,39.586 174.5,40C 176.093,40.9487 177.426,42.1154 178.5,43.5 Z"></path></g>
<g><path style="opacity:1" fill="#fbe793" d="M 156.5,51.5 C 153.833,51.5 151.167,51.5 148.5,51.5C 148.5,48.8333 148.5,46.1667 148.5,43.5C 145.612,44.0102 143.279,43.3435 141.5,41.5C 141.5,39.5 141.5,37.5 141.5,35.5C 144.247,35.1866 146.914,35.52 149.5,36.5C 151.455,38.9576 153.622,41.291 156,43.5C 157.23,46.2064 157.396,48.873 156.5,51.5 Z"></path></g>
<g><path style="opacity:1" fill="#f8d544" d="M 101.5,35.5 C 103.833,35.5 106.167,35.5 108.5,35.5C 108.5,38.1667 108.5,40.8333 108.5,43.5C 111.167,43.5 113.833,43.5 116.5,43.5C 116.5,46.1667 116.5,48.8333 116.5,51.5C 118.833,51.5 121.167,51.5 123.5,51.5C 123.5,56.8333 123.5,62.1667 123.5,67.5C 121.5,67.5 119.5,67.5 117.5,67.5C 117.5,64.1667 117.5,60.8333 117.5,57.5C 115.396,57.7989 113.396,57.4656 111.5,56.5C 112.325,55.6143 113.325,55.281 114.5,55.5C 114.5,54.1667 114.5,52.8333 114.5,51.5C 112.167,51.5 109.833,51.5 107.5,51.5C 107.167,51.5 106.833,51.5 106.5,51.5C 106.5,49.5 106.5,47.5 106.5,45.5C 104.549,45.7733 103.049,45.1066 102,43.5C 101.503,40.854 101.336,38.1873 101.5,35.5 Z"></path></g>
<g><path style="opacity:1" fill="#f9d750" d="M 130.5,21.5 C 130.384,24.8599 130.051,28.1933 129.5,31.5C 131.59,31.4501 132.923,32.4501 133.5,34.5C 135.743,35.4742 138.076,35.8076 140.5,35.5C 140.205,37.7354 140.539,39.7354 141.5,41.5C 143.279,43.3435 145.612,44.0102 148.5,43.5C 148.5,46.1667 148.5,48.8333 148.5,51.5C 151.167,51.5 153.833,51.5 156.5,51.5C 156.5,54.1667 156.5,56.8333 156.5,59.5C 159.167,59.5 161.833,59.5 164.5,59.5C 164.5,62.1667 164.5,64.8333 164.5,67.5C 167.167,67.5 169.833,67.5 172.5,67.5C 172.664,70.1873 172.497,72.854 172,75.5C 170.796,76.8586 169.296,77.8586 167.5,78.5C 166.167,79.8333 166.167,81.1667 167.5,82.5C 166.675,83.3857 165.675,83.719 164.5,83.5C 164.5,80.8333 164.5,78.1667 164.5,75.5C 162.167,75.5 159.833,75.5 157.5,75.5C 157.806,72.6146 157.473,69.9479 156.5,67.5C 156.167,67.5 155.833,67.5 155.5,67.5C 153.5,67.5 151.5,67.5 149.5,67.5C 149.5,64.8333 149.5,62.1667 149.5,59.5C 146.975,58.36 144.308,57.6933 141.5,57.5C 141.328,55.5082 141.995,53.8415 143.5,52.5C 142.311,51.5713 140.978,51.238 139.5,51.5C 135.167,51.5 130.833,51.5 126.5,51.5C 125.624,51.6309 124.957,51.2975 124.5,50.5C 127.167,49.1667 127.167,47.8333 124.5,46.5C 128.335,45.0035 128.335,44.0035 124.5,43.5C 123.167,38.8333 123.167,34.1667 124.5,29.5C 125.675,29.719 126.675,29.3857 127.5,28.5C 122.1,28.1312 117.1,27.1312 112.5,25.5C 112.833,25.5 113.167,25.5 113.5,25.5C 116.012,25.5772 118.012,24.5772 119.5,22.5C 123.107,21.5108 126.774,21.1774 130.5,21.5 Z"></path></g>
<g><path style="opacity:1" fill="#f9d853" d="M 74.5,19.5 C 74.8333,19.5 75.1667,19.5 75.5,19.5C 75.8333,19.5 76.1667,19.5 76.5,19.5C 79.1667,19.5 81.8333,19.5 84.5,19.5C 84.5106,21.0174 85.1772,22.1841 86.5,23C 84.4368,25.5415 83.1035,28.3748 82.5,31.5C 80.8002,31.3739 79.3002,30.7073 78,29.5C 76.6988,30.0981 75.8655,31.0981 75.5,32.5C 77.3316,33.0568 78.6649,34.0568 79.5,35.5C 75.5269,35.5963 72.1936,36.263 69.5,37.5C 69.5,39.5 69.5,41.5 69.5,43.5C 65.774,43.1774 62.1073,43.5108 58.5,44.5C 60.1667,45.1667 61.8333,45.8333 63.5,46.5C 62.3112,47.4287 60.9778,47.762 59.5,47.5C 58.9492,50.8067 58.6159,54.1401 58.5,57.5C 56.5168,57.1568 55.1834,57.8235 54.5,59.5C 53.5,59.5 52.5,59.5 51.5,59.5C 49.5082,59.6715 47.8415,59.0049 46.5,57.5C 43.7248,59.6073 40.7248,59.9406 37.5,58.5C 36.6258,56.2534 36.2924,53.9201 36.5,51.5C 39.1667,51.5 41.8333,51.5 44.5,51.5C 44.5,48.8333 44.5,46.1667 44.5,43.5C 47.1667,43.5 49.8333,43.5 52.5,43.5C 52.5,40.8333 52.5,38.1667 52.5,35.5C 46.3653,35.0097 46.1986,34.3431 52,33.5C 57.4076,34.9849 62.9076,35.6516 68.5,35.5C 68.3359,32.8127 68.5026,30.146 69,27.5C 70.2045,26.1414 71.7045,25.1414 73.5,24.5C 74.3094,22.9291 74.6427,21.2624 74.5,19.5 Z"></path></g>
<g><path style="opacity:0.705" fill="#fdf6d7" d="M 20.5,35.5 C 20.4013,38.2372 20.7347,40.9039 21.5,43.5C 19.5,43.5 17.5,43.5 15.5,43.5C 13.5613,44.0138 12.5613,45.3472 12.5,47.5C 12.5613,49.6528 13.5613,50.9862 15.5,51.5C 14.5423,54.1247 13.3757,54.1247 12,51.5C 11.3333,48.8333 11.3333,46.1667 12,43.5C 12.3879,42.572 13.0546,41.9054 14,41.5C 15.2349,42.6155 16.4016,42.6155 17.5,41.5C 17.9642,39.0251 18.9642,37.0251 20.5,35.5 Z"></path></g>
<g><path style="opacity:1" fill="#fadf70" d="M 130.5,21.5 C 132.369,23.6353 133.036,26.3019 132.5,29.5C 134.924,29.1924 137.257,29.5258 139.5,30.5C 134.183,31.8433 134.183,33.1766 139.5,34.5C 140.386,33.675 140.719,32.675 140.5,31.5C 145.167,31.5 149.833,31.5 154.5,31.5C 154.801,37.7384 157.801,42.0718 163.5,44.5C 168.5,45.1667 173.5,45.8333 178.5,46.5C 176.396,50.5816 175.396,54.915 175.5,59.5C 171.653,59.6192 167.986,58.9525 164.5,57.5C 164.5,55.5 164.5,53.5 164.5,51.5C 161.833,51.5 159.167,51.5 156.5,51.5C 157.396,48.873 157.23,46.2064 156,43.5C 153.622,41.291 151.455,38.9576 149.5,36.5C 146.914,35.52 144.247,35.1866 141.5,35.5C 141.5,37.5 141.5,39.5 141.5,41.5C 140.539,39.7354 140.205,37.7354 140.5,35.5C 138.076,35.8076 135.743,35.4742 133.5,34.5C 132.923,32.4501 131.59,31.4501 129.5,31.5C 130.051,28.1933 130.384,24.8599 130.5,21.5 Z"></path></g>
<g><path style="opacity:0.004" fill="#faffee" d="M 3.5,47.5 C 5.33702,47.6395 5.67036,48.3061 4.5,49.5C 3.70245,49.0431 3.36912,48.3764 3.5,47.5 Z"></path></g>
<g><path style="opacity:1" fill="#fadf82" d="M 79.5,35.5 C 78.8166,37.1765 77.4832,37.8432 75.5,37.5C 75.5,38.8333 75.5,40.1667 75.5,41.5C 77.4832,41.1568 78.8166,41.8235 79.5,43.5C 78.0222,43.238 76.6888,43.5713 75.5,44.5C 76.6084,49.4848 77.6084,54.4848 78.5,59.5C 77.5,59.5 76.5,59.5 75.5,59.5C 75.5,56.8333 75.5,54.1667 75.5,51.5C 70.1244,50.8942 65.1244,51.8942 60.5,54.5C 63.1667,55.8333 63.1667,57.1667 60.5,58.5C 58.604,59.4656 56.604,59.7989 54.5,59.5C 55.1834,57.8235 56.5168,57.1568 58.5,57.5C 58.6159,54.1401 58.9492,50.8067 59.5,47.5C 60.9778,47.762 62.3112,47.4287 63.5,46.5C 61.8333,45.8333 60.1667,45.1667 58.5,44.5C 62.1073,43.5108 65.774,43.1774 69.5,43.5C 69.5,41.5 69.5,39.5 69.5,37.5C 72.1936,36.263 75.5269,35.5963 79.5,35.5 Z"></path></g>
<g><path style="opacity:1" fill="#f7d539" d="M 79.5,43.5 C 80.7498,43.5774 81.5831,44.244 82,45.5C 82.4992,50.1548 82.6658,54.8215 82.5,59.5C 81.1667,59.5 79.8333,59.5 78.5,59.5C 77.6084,54.4848 76.6084,49.4848 75.5,44.5C 76.6888,43.5713 78.0222,43.238 79.5,43.5 Z"></path></g>
<g><path style="opacity:0.253" fill="#f8ffec" d="M -0.5,53.5 C 0.586173,53.62 1.25284,54.2867 1.5,55.5C 1.25284,56.7133 0.586173,57.38 -0.5,57.5C -0.5,56.1667 -0.5,54.8333 -0.5,53.5 Z"></path></g>
<g><path style="opacity:1" fill="#fae696" d="M 15.5,43.5 C 18.7443,45.1119 22.411,46.1119 26.5,46.5C 25.3496,48.6088 24.0163,50.6088 22.5,52.5C 23.3094,54.0709 23.6427,55.7376 23.5,57.5C 24.8333,57.5 26.1667,57.5 27.5,57.5C 27.6427,55.7376 27.3094,54.0709 26.5,52.5C 29.4281,51.5159 32.4281,51.1826 35.5,51.5C 35.5,54.1667 35.5,56.8333 35.5,59.5C 33.1667,59.5 30.8333,59.5 28.5,59.5C 28.8064,62.3854 28.4731,65.0521 27.5,67.5C 25.5,67.5 23.5,67.5 21.5,67.5C 21.0233,64.5625 20.0233,61.8958 18.5,59.5C 18.5,56.8333 18.5,54.1667 18.5,51.5C 17.5,51.5 16.5,51.5 15.5,51.5C 13.5613,50.9862 12.5613,49.6528 12.5,47.5C 12.5613,45.3472 13.5613,44.0138 15.5,43.5 Z"></path></g>
<g><path style="opacity:1" fill="#fbdd97" d="M 139.5,51.5 C 140.978,51.238 142.311,51.5713 143.5,52.5C 141.995,53.8415 141.328,55.5082 141.5,57.5C 144.308,57.6933 146.975,58.36 149.5,59.5C 149.5,62.1667 149.5,64.8333 149.5,67.5C 147.692,66.0821 147.025,64.0821 147.5,61.5C 144.436,61.0725 141.436,60.4058 138.5,59.5C 138.401,56.7628 138.735,54.0961 139.5,51.5 Z"></path></g>
<g><path style="opacity:0.004" fill="#faffee" d="M 3.5,61.5 C 5.33702,61.6395 5.67036,62.3061 4.5,63.5C 3.70245,63.0431 3.36912,62.3764 3.5,61.5 Z"></path></g>
<g><path style="opacity:1" fill="#fddccc" d="M 78.5,59.5 C 79.8333,59.5 81.1667,59.5 82.5,59.5C 83.675,59.719 84.675,59.3857 85.5,58.5C 84.6258,56.2534 84.2924,53.9201 84.5,51.5C 91.8333,51.5 99.1667,51.5 106.5,51.5C 106.833,51.5 107.167,51.5 107.5,51.5C 107.5,54.1667 107.5,56.8333 107.5,59.5C 110.247,59.1866 112.914,59.52 115.5,60.5C 116.067,62.9823 116.734,65.3157 117.5,67.5C 119.5,67.5 121.5,67.5 123.5,67.5C 124.777,66.3064 125.444,64.6397 125.5,62.5C 126.286,58.7194 126.62,55.0528 126.5,51.5C 130.833,51.5 135.167,51.5 139.5,51.5C 138.735,54.0961 138.401,56.7628 138.5,59.5C 141.436,60.4058 144.436,61.0725 147.5,61.5C 147.025,64.0821 147.692,66.0821 149.5,67.5C 151.5,67.5 153.5,67.5 155.5,67.5C 155.5,70.1667 155.5,72.8333 155.5,75.5C 153.167,75.5 150.833,75.5 148.5,75.5C 137.833,75.5 127.167,75.5 116.5,75.5C 116.194,78.3854 116.527,81.0521 117.5,83.5C 115.581,86.9216 114.247,90.5883 113.5,94.5C 114.298,101.45 114.798,108.45 115,115.5C 116.754,117.25 118.921,117.917 121.5,117.5C 121.773,119.451 121.107,120.951 119.5,122C 120.167,122.333 120.833,122.667 121.5,123C 118.334,124.557 115,125.39 111.5,125.5C 111.5,126.833 111.5,128.167 111.5,129.5C 110.5,129.5 109.5,129.5 108.5,129.5C 108.5,127.5 108.5,125.5 108.5,123.5C 105.833,123.5 103.167,123.5 100.5,123.5C 100.5,126.167 100.5,128.833 100.5,131.5C 97.8333,131.5 95.1667,131.5 92.5,131.5C 92.5,133.5 92.5,135.5 92.5,137.5C 89.5,137.5 86.5,137.5 83.5,137.5C 83.33,136.178 83.6634,135.011 84.5,134C 83.3379,133.173 82.1712,132.34 81,131.5C 80.0546,131.905 79.3879,132.572 79,133.5C 78.6667,130.833 78.3333,128.167 78,125.5C 77.6824,123.939 76.8491,122.772 75.5,122C 71.8333,121.333 68.1667,121.333 64.5,122C 58.9207,123.304 53.254,124.47 47.5,125.5C 47.5,131.5 47.5,137.5 47.5,143.5C 56.7715,144.798 66.1049,145.798 75.5,146.5C 67.8622,147.497 60.1955,147.831 52.5,147.5C 49.8333,147.5 47.1667,147.5 44.5,147.5C 45.5023,136.852 45.5023,126.185 44.5,115.5C 41.8333,115.5 39.1667,115.5 36.5,115.5C 36.5,104.833 36.5,94.1667 36.5,83.5C 36.5,80.8333 36.5,78.1667 36.5,75.5C 39.1667,75.5 41.8333,75.5 44.5,75.5C 44.5,72.8333 44.5,70.1667 44.5,67.5C 51.5371,68.7213 53.8705,66.0547 51.5,59.5C 52.5,59.5 53.5,59.5 54.5,59.5C 56.604,59.7989 58.604,59.4656 60.5,58.5C 63.1667,57.1667 63.1667,55.8333 60.5,54.5C 65.1244,51.8942 70.1244,50.8942 75.5,51.5C 75.5,54.1667 75.5,56.8333 75.5,59.5C 76.5,59.5 77.5,59.5 78.5,59.5 Z"></path></g>
<g><path style="opacity:1" fill="#f9d973" d="M 107.5,51.5 C 109.833,51.5 112.167,51.5 114.5,51.5C 114.5,52.8333 114.5,54.1667 114.5,55.5C 113.325,55.281 112.325,55.6143 111.5,56.5C 113.396,57.4656 115.396,57.7989 117.5,57.5C 117.5,60.8333 117.5,64.1667 117.5,67.5C 116.734,65.3157 116.067,62.9823 115.5,60.5C 112.914,59.52 110.247,59.1866 107.5,59.5C 107.5,56.8333 107.5,54.1667 107.5,51.5 Z"></path></g>
<g><path style="opacity:1" fill="#f5e9b9" d="M 15.5,59.5 C 13.6549,69.9855 12.6549,80.6522 12.5,91.5C 11.2521,90.6661 10.5854,89.3328 10.5,87.5C 11.2216,78.1818 11.7216,68.8485 12,59.5C 13.3757,56.8753 14.5423,56.8753 15.5,59.5 Z"></path></g>
<g><path style="opacity:0.071" fill="#fefeda" d="M 181.5,59.5 C 180.922,66.7127 181.588,73.7127 183.5,80.5C 183.227,84.5951 182.227,88.2617 180.5,91.5C 180.172,80.6536 180.506,69.9869 181.5,59.5 Z"></path></g>
<g><path style="opacity:1" fill="#fade6b" d="M 15.5,43.5 C 17.5,43.5 19.5,43.5 21.5,43.5C 25.8839,43.1744 30.2172,43.5078 34.5,44.5C 36.1733,46.5225 36.8399,48.8559 36.5,51.5C 36.2924,53.9201 36.6258,56.2534 37.5,58.5C 40.7248,59.9406 43.7248,59.6073 46.5,57.5C 47.8415,59.0049 49.5082,59.6715 51.5,59.5C 53.8705,66.0547 51.5371,68.7213 44.5,67.5C 44.5,70.1667 44.5,72.8333 44.5,75.5C 41.8333,75.5 39.1667,75.5 36.5,75.5C 36.5,71.5 36.5,67.5 36.5,63.5C 35.325,63.719 34.325,63.3857 33.5,62.5C 34.6119,61.7348 35.2786,60.7348 35.5,59.5C 35.5,56.8333 35.5,54.1667 35.5,51.5C 32.4281,51.1826 29.4281,51.5159 26.5,52.5C 27.3094,54.0709 27.6427,55.7376 27.5,57.5C 26.1667,57.5 24.8333,57.5 23.5,57.5C 23.6427,55.7376 23.3094,54.0709 22.5,52.5C 24.0163,50.6088 25.3496,48.6088 26.5,46.5C 22.411,46.1119 18.7443,45.1119 15.5,43.5 Z"></path></g>
<g><path style="opacity:1" fill="#f9e07f" d="M 15.5,59.5 C 16.5,59.5 17.5,59.5 18.5,59.5C 20.0233,61.8958 21.0233,64.5625 21.5,67.5C 23.5,67.5 25.5,67.5 27.5,67.5C 25.7211,69.3435 23.3878,70.0102 20.5,69.5C 20.5,72.8333 20.5,76.1667 20.5,79.5C 19.325,79.281 18.325,79.6143 17.5,80.5C 22.3983,82.3639 26.0649,81.0306 28.5,76.5C 31.0865,75.52 33.7531,75.1866 36.5,75.5C 36.5,78.1667 36.5,80.8333 36.5,83.5C 36.1667,83.5 35.8333,83.5 35.5,83.5C 33.1667,83.5 30.8333,83.5 28.5,83.5C 28.5,88.8333 28.5,94.1667 28.5,99.5C 25.6146,99.1936 22.9479,99.5269 20.5,100.5C 18.8995,98.7022 18.5662,96.7022 19.5,94.5C 16.7833,94.026 14.4499,93.026 12.5,91.5C 12.6549,80.6522 13.6549,69.9855 15.5,59.5 Z"></path></g>
<g><path style="opacity:1" fill="#f9e183" d="M 132.5,11.5 C 138.502,10.8044 140.835,13.4711 139.5,19.5C 140.833,19.5 142.167,19.5 143.5,19.5C 151.653,19.2075 159.653,19.2075 167.5,19.5C 168.75,19.5774 169.583,20.244 170,21.5C 170.495,23.4727 170.662,25.4727 170.5,27.5C 169.5,27.5 168.5,27.5 167.5,27.5C 166.5,27.5 165.5,27.5 164.5,27.5C 164.643,29.2624 164.309,30.9291 163.5,32.5C 163.879,34.2131 164.879,35.2131 166.5,35.5C 167.833,35.5 169.167,35.5 170.5,35.5C 172.369,37.6353 173.036,40.3019 172.5,43.5C 174.5,43.5 176.5,43.5 178.5,43.5C 179.833,43.5 181.167,43.5 182.5,43.5C 182.33,44.8221 182.663,45.9887 183.5,47C 181.893,48.049 181.227,49.549 181.5,51.5C 184.547,52.1446 186.713,51.1446 188,48.5C 190,53.1667 190,57.8333 188,62.5C 186.713,59.8554 184.547,58.8554 181.5,59.5C 180.506,69.9869 180.172,80.6536 180.5,91.5C 177.833,91.5 175.167,91.5 172.5,91.5C 172.5,94.1667 172.5,96.8333 172.5,99.5C 169.833,99.5 167.167,99.5 164.5,99.5C 164.5,94.1667 164.5,88.8333 164.5,83.5C 165.675,83.719 166.675,83.3857 167.5,82.5C 166.167,81.1667 166.167,79.8333 167.5,78.5C 169.296,77.8586 170.796,76.8586 172,75.5C 172.497,72.854 172.664,70.1873 172.5,67.5C 169.833,67.5 167.167,67.5 164.5,67.5C 164.5,64.8333 164.5,62.1667 164.5,59.5C 161.833,59.5 159.167,59.5 156.5,59.5C 156.5,56.8333 156.5,54.1667 156.5,51.5C 159.167,51.5 161.833,51.5 164.5,51.5C 164.5,53.5 164.5,55.5 164.5,57.5C 167.986,58.9525 171.653,59.6192 175.5,59.5C 175.396,54.915 176.396,50.5816 178.5,46.5C 173.5,45.8333 168.5,45.1667 163.5,44.5C 157.801,42.0718 154.801,37.7384 154.5,31.5C 149.833,31.5 145.167,31.5 140.5,31.5C 140.719,32.675 140.386,33.675 139.5,34.5C 134.183,33.1766 134.183,31.8433 139.5,30.5C 137.257,29.5258 134.924,29.1924 132.5,29.5C 133.036,26.3019 132.369,23.6353 130.5,21.5C 126.774,21.1774 123.107,21.5108 119.5,22.5C 118.012,24.5772 116.012,25.5772 113.5,25.5C 113.721,24.2652 114.388,23.2652 115.5,22.5C 112.833,21.8333 110.167,21.1667 107.5,20.5C 110.768,19.513 114.102,19.1796 117.5,19.5C 122.5,19.5 127.5,19.5 132.5,19.5C 132.5,16.8333 132.5,14.1667 132.5,11.5 Z"></path></g>
<g><path style="opacity:1" fill="#975d45" d="M 76.5,75.5 C 76.5,72.8333 76.5,70.1667 76.5,67.5C 79.1667,67.5 81.8333,67.5 84.5,67.5C 84.5,70.1667 84.5,72.8333 84.5,75.5C 81.8333,75.5 79.1667,75.5 76.5,75.5 Z"></path></g>
<g><path style="opacity:1" fill="#f7d748" d="M 35.5,59.5 C 35.2786,60.7348 34.6119,61.7348 33.5,62.5C 34.325,63.3857 35.325,63.719 36.5,63.5C 36.5,67.5 36.5,71.5 36.5,75.5C 33.7531,75.1866 31.0865,75.52 28.5,76.5C 26.0649,81.0306 22.3983,82.3639 17.5,80.5C 18.325,79.6143 19.325,79.281 20.5,79.5C 20.5,76.1667 20.5,72.8333 20.5,69.5C 23.3878,70.0102 25.7211,69.3435 27.5,67.5C 28.4731,65.0521 28.8064,62.3854 28.5,59.5C 30.8333,59.5 33.1667,59.5 35.5,59.5 Z"></path></g>
<g><path style="opacity:1" fill="#995b3d" d="M 44.5,75.5 C 55.1667,75.5 65.8333,75.5 76.5,75.5C 76.5,78.1667 76.5,80.8333 76.5,83.5C 73.8333,83.5 71.1667,83.5 68.5,83.5C 65.8333,83.5 63.1667,83.5 60.5,83.5C 57.8333,83.5 55.1667,83.5 52.5,83.5C 52.5,86.1667 52.5,88.8333 52.5,91.5C 49.8333,91.5 47.1667,91.5 44.5,91.5C 44.5,86.1667 44.5,80.8333 44.5,75.5 Z"></path></g>
<g><path style="opacity:1" fill="#9a5b3f" d="M 148.5,75.5 C 148.5,76.1667 148.5,76.8333 148.5,77.5C 148.5,82.1667 148.5,86.8333 148.5,91.5C 145.833,91.5 143.167,91.5 140.5,91.5C 140.5,88.8333 140.5,86.1667 140.5,83.5C 137.833,83.5 135.167,83.5 132.5,83.5C 129.833,83.5 127.167,83.5 124.5,83.5C 122.167,83.5 119.833,83.5 117.5,83.5C 116.527,81.0521 116.194,78.3854 116.5,75.5C 127.167,75.5 137.833,75.5 148.5,75.5 Z"></path></g>
<g><path style="opacity:0.256" fill="#fffeeb" d="M 3.5,79.5 C 4.58617,79.62 5.25284,80.2867 5.5,81.5C 5.16667,82.1667 4.83333,82.8333 4.5,83.5C 3.57131,82.3112 3.23798,80.9778 3.5,79.5 Z"></path></g>
<g><path style="opacity:1" fill="#fafcf9" d="M 60.5,83.5 C 60.5,88.8333 60.5,94.1667 60.5,99.5C 60.5,104.833 60.5,110.167 60.5,115.5C 57.8333,115.5 55.1667,115.5 52.5,115.5C 52.5,107.5 52.5,99.5 52.5,91.5C 52.5,88.8333 52.5,86.1667 52.5,83.5C 55.1667,83.5 57.8333,83.5 60.5,83.5 Z"></path></g>
<g><path style="opacity:1" fill="#f5f7f6" d="M 68.5,83.5 C 71.1667,83.5 73.8333,83.5 76.5,83.5C 76.9865,93.5477 77.6532,103.881 78.5,114.5C 78.0431,115.298 77.3764,115.631 76.5,115.5C 76.5,110.167 76.5,104.833 76.5,99.5C 76.5,96.8333 76.5,94.1667 76.5,91.5C 73.8333,91.5 71.1667,91.5 68.5,91.5C 68.5,88.8333 68.5,86.1667 68.5,83.5 Z"></path></g>
<g><path style="opacity:1" fill="#f8f7f5" d="M 117.5,83.5 C 119.833,83.5 122.167,83.5 124.5,83.5C 124.5,86.1667 124.5,88.8333 124.5,91.5C 121.833,91.5 119.167,91.5 116.5,91.5C 116.5,94.1667 116.5,96.8333 116.5,99.5C 116.5,104.833 116.5,110.167 116.5,115.5C 121.833,115.5 127.167,115.5 132.5,115.5C 132.5,110.167 132.5,104.833 132.5,99.5C 132.5,94.1667 132.5,88.8333 132.5,83.5C 135.167,83.5 137.833,83.5 140.5,83.5C 140.5,86.1667 140.5,88.8333 140.5,91.5C 140.5,99.5 140.5,107.5 140.5,115.5C 134.237,116.71 127.904,117.376 121.5,117.5C 118.921,117.917 116.754,117.25 115,115.5C 114.798,108.45 114.298,101.45 113.5,94.5C 114.247,90.5883 115.581,86.9216 117.5,83.5 Z"></path></g>
<g><path style="opacity:1" fill="#576c89" d="M 124.5,83.5 C 127.167,83.5 129.833,83.5 132.5,83.5C 132.5,88.8333 132.5,94.1667 132.5,99.5C 127.167,99.5 121.833,99.5 116.5,99.5C 116.5,96.8333 116.5,94.1667 116.5,91.5C 119.167,91.5 121.833,91.5 124.5,91.5C 124.5,88.8333 124.5,86.1667 124.5,83.5 Z"></path></g>
<g><path style="opacity:0.405" fill="#fefce3" d="M 180.5,91.5 C 178.884,92.9892 176.884,93.9892 174.5,94.5C 175.582,97.0176 174.915,99.0176 172.5,100.5C 172.5,100.167 172.5,99.8333 172.5,99.5C 172.5,96.8333 172.5,94.1667 172.5,91.5C 175.167,91.5 177.833,91.5 180.5,91.5 Z"></path></g>
<g><path style="opacity:0.006" fill="#ecfefd" d="M 15.5,95.5 C 17.9732,95.9473 18.1399,96.9473 16,98.5C 15.5172,97.552 15.3505,96.552 15.5,95.5 Z"></path></g>
<g><path style="opacity:1" fill="#f3b83d" d="M 35.5,83.5 C 35.5,93.5 35.5,103.5 35.5,113.5C 33.5,113.5 31.5,113.5 29.5,113.5C 29.8195,108.637 29.4861,103.97 28.5,99.5C 28.5,94.1667 28.5,88.8333 28.5,83.5C 30.8333,83.5 33.1667,83.5 35.5,83.5 Z"></path></g>
<g><path style="opacity:1" fill="#556d88" d="M 60.5,83.5 C 63.1667,83.5 65.8333,83.5 68.5,83.5C 68.5,86.1667 68.5,88.8333 68.5,91.5C 71.1667,91.5 73.8333,91.5 76.5,91.5C 76.5,94.1667 76.5,96.8333 76.5,99.5C 71.1667,99.5 65.8333,99.5 60.5,99.5C 60.5,94.1667 60.5,88.8333 60.5,83.5 Z"></path></g>
<g><path style="opacity:1" fill="#f4b641" d="M 156.5,67.5 C 157.473,69.9479 157.806,72.6146 157.5,75.5C 159.833,75.5 162.167,75.5 164.5,75.5C 164.5,78.1667 164.5,80.8333 164.5,83.5C 164.5,88.8333 164.5,94.1667 164.5,99.5C 164.5,104.833 164.5,110.167 164.5,115.5C 161.833,115.5 159.167,115.5 156.5,115.5C 156.5,99.5 156.5,83.5 156.5,67.5 Z"></path></g>
<g><path style="opacity:0.02" fill="#e4f0f5" d="M 16.5,99.5 C 17.8333,100.167 17.8333,100.167 16.5,99.5 Z"></path></g>
<g><path style="opacity:0.004" fill="#eef5f2" d="M 15.5,101.5 C 16.8333,102.167 16.8333,102.167 15.5,101.5 Z"></path></g>
<g><path style="opacity:1" fill="#060303" d="M 28.5,99.5 C 28.5,104.833 28.5,110.167 28.5,115.5C 25.8333,115.5 23.1667,115.5 20.5,115.5C 20.5,114.833 20.5,114.167 20.5,113.5C 20.5,112.833 20.5,112.167 20.5,111.5C 20.5,107.833 20.5,104.167 20.5,100.5C 22.9479,99.5269 25.6146,99.1936 28.5,99.5 Z"></path></g>
<g><path style="opacity:1" fill="#a0d7e6" d="M 116.5,99.5 C 121.833,99.5 127.167,99.5 132.5,99.5C 132.5,104.833 132.5,110.167 132.5,115.5C 127.167,115.5 121.833,115.5 116.5,115.5C 116.5,110.167 116.5,104.833 116.5,99.5 Z"></path></g>
<g><path style="opacity:1" fill="#050203" d="M 164.5,99.5 C 167.167,99.5 169.833,99.5 172.5,99.5C 172.5,99.8333 172.5,100.167 172.5,100.5C 172.5,105.167 172.5,109.833 172.5,114.5C 170.052,115.473 167.385,115.806 164.5,115.5C 164.5,110.167 164.5,104.833 164.5,99.5 Z"></path></g>
<g><path style="opacity:1" fill="#9ed8e5" d="M 60.5,99.5 C 65.8333,99.5 71.1667,99.5 76.5,99.5C 76.5,104.833 76.5,110.167 76.5,115.5C 71.1667,115.5 65.8333,115.5 60.5,115.5C 60.5,110.167 60.5,104.833 60.5,99.5 Z"></path></g>
<g><path style="opacity:0.004" fill="#faffef" d="M 15.5,105.5 C 17.337,105.639 17.6704,106.306 16.5,107.5C 15.7025,107.043 15.3691,106.376 15.5,105.5 Z"></path></g>
<g><path style="opacity:0.008" fill="#feebf9" d="M 15.5,112.5 C 16.8333,113.167 16.8333,113.167 15.5,112.5 Z"></path></g>
<g><path style="opacity:0.035" fill="#f7fde3" d="M 20.5,111.5 C 20.5,112.167 20.5,112.833 20.5,113.5C 16.7113,112.404 16.7113,111.737 20.5,111.5 Z"></path></g>
<g><path style="opacity:0.012" fill="#f3e8f3" d="M 16.5,114.5 C 17.8333,115.167 17.8333,115.167 16.5,114.5 Z"></path></g>
<g><path style="opacity:1" fill="#e5b865" d="M 35.5,83.5 C 35.8333,83.5 36.1667,83.5 36.5,83.5C 36.5,94.1667 36.5,104.833 36.5,115.5C 33.8333,115.5 31.1667,115.5 28.5,115.5C 28.5,110.167 28.5,104.833 28.5,99.5C 29.4861,103.97 29.8195,108.637 29.5,113.5C 31.5,113.5 33.5,113.5 35.5,113.5C 35.5,103.5 35.5,93.5 35.5,83.5 Z"></path></g>
<g><path style="opacity:0.004" fill="#f0edfe" d="M 15.5,116.5 C 16.8333,117.167 16.8333,117.167 15.5,116.5 Z"></path></g>
<g><path style="opacity:1" fill="#f5e58e" d="M 20.5,115.5 C 23.1667,115.5 25.8333,115.5 28.5,115.5C 28.5,118.167 28.5,120.833 28.5,123.5C 25.1667,123.5 21.8333,123.5 18.5,123.5C 18.838,120.989 18.838,118.655 18.5,116.5C 18.9569,115.702 19.6236,115.369 20.5,115.5 Z"></path></g>
<g><path style="opacity:1" fill="#f7e391" d="M 172.5,114.5 C 173.88,114.962 174.547,115.962 174.5,117.5C 173.844,119.453 173.511,121.453 173.5,123.5C 170.145,123.091 167.145,123.758 164.5,125.5C 164.5,122.167 164.5,118.833 164.5,115.5C 167.385,115.806 170.052,115.473 172.5,114.5 Z"></path></g>
<g><path style="opacity:1" fill="#f6d6a3" d="M 155.5,67.5 C 155.833,67.5 156.167,67.5 156.5,67.5C 156.5,83.5 156.5,99.5 156.5,115.5C 156.5,126.167 156.5,136.833 156.5,147.5C 153.833,147.5 151.167,147.5 148.5,147.5C 148.5,152.833 148.5,158.167 148.5,163.5C 147.833,163.5 147.167,163.5 146.5,163.5C 146.742,158.287 146.742,152.953 146.5,147.5C 144.833,147.5 143.167,147.5 141.5,147.5C 141.276,143.485 142.443,142.819 145,145.5C 145.945,145.095 146.612,144.428 147,143.5C 147.665,136.805 147.498,130.138 146.5,123.5C 145.5,123.5 144.5,123.5 143.5,123.5C 143.5,122.167 143.5,120.833 143.5,119.5C 144.833,119.5 146.167,119.5 147.5,119.5C 147.5,117.5 147.5,115.5 147.5,113.5C 150.167,113.5 152.833,113.5 155.5,113.5C 154.865,101.788 154.865,90.1211 155.5,78.5C 153.257,77.5258 150.924,77.1924 148.5,77.5C 148.5,76.8333 148.5,76.1667 148.5,75.5C 150.833,75.5 153.167,75.5 155.5,75.5C 155.5,72.8333 155.5,70.1667 155.5,67.5 Z"></path></g>
<g><path style="opacity:1" fill="#050104" d="M 156.5,115.5 C 159.167,115.5 161.833,115.5 164.5,115.5C 164.5,118.833 164.5,122.167 164.5,125.5C 164.5,132.833 164.5,140.167 164.5,147.5C 161.833,147.5 159.167,147.5 156.5,147.5C 156.5,136.833 156.5,126.167 156.5,115.5 Z"></path></g>
<g><path style="opacity:1" fill="#fddac6" d="M 92.5,137.5 C 92.5,138.167 92.5,138.833 92.5,139.5C 85.5203,137.953 82.5203,140.62 83.5,147.5C 81.396,147.201 79.396,147.534 77.5,148.5C 77.1667,150.5 76.8333,152.5 76.5,154.5C 68.5277,155.498 60.5277,155.831 52.5,155.5C 53.2541,152.744 53.2541,150.078 52.5,147.5C 60.1955,147.831 67.8622,147.497 75.5,146.5C 66.1049,145.798 56.7715,144.798 47.5,143.5C 47.5,137.5 47.5,131.5 47.5,125.5C 53.254,124.47 58.9207,123.304 64.5,122C 68.1667,121.333 71.8333,121.333 75.5,122C 76.8491,122.772 77.6824,123.939 78,125.5C 78.3333,128.167 78.6667,130.833 79,133.5C 79.3879,132.572 80.0546,131.905 81,131.5C 82.1712,132.34 83.3379,133.173 84.5,134C 83.6634,135.011 83.33,136.178 83.5,137.5C 86.5,137.5 89.5,137.5 92.5,137.5 Z"></path></g>
<g><path style="opacity:1" fill="#955d3e" d="M 108.5,129.5 C 106.365,131.369 103.698,132.036 100.5,131.5C 100.5,128.833 100.5,126.167 100.5,123.5C 103.167,123.5 105.833,123.5 108.5,123.5C 108.5,125.5 108.5,127.5 108.5,129.5 Z"></path></g>
<g><path style="opacity:1" fill="#0a0506" d="M 28.5,115.5 C 31.1667,115.5 33.8333,115.5 36.5,115.5C 36.5,126.167 36.5,136.833 36.5,147.5C 35.1667,147.833 33.8333,148.167 32.5,148.5C 31.4583,147.209 30.2917,147.209 29,148.5C 28.5003,140.173 28.3336,131.84 28.5,123.5C 28.5,120.833 28.5,118.167 28.5,115.5 Z"></path></g>
<g><path style="opacity:1" fill="#f0c77b" d="M 36.5,115.5 C 39.1667,115.5 41.8333,115.5 44.5,115.5C 45.5023,126.185 45.5023,136.852 44.5,147.5C 41.8333,147.5 39.1667,147.5 36.5,147.5C 36.5,136.833 36.5,126.167 36.5,115.5 Z"></path></g>
<g><path style="opacity:1" fill="#f8c460" d="M 38.5,117.5 C 39.8333,117.5 41.1667,117.5 42.5,117.5C 42.5,126.833 42.5,136.167 42.5,145.5C 40.8333,145.5 39.1667,145.5 37.5,145.5C 37.4343,136.148 37.7676,126.815 38.5,117.5 Z"></path></g>
<g><path style="opacity:1" fill="#fcdbc8" d="M 148.5,77.5 C 150.924,77.1924 153.257,77.5258 155.5,78.5C 154.865,90.1211 154.865,101.788 155.5,113.5C 152.833,113.5 150.167,113.5 147.5,113.5C 147.5,115.5 147.5,117.5 147.5,119.5C 146.167,119.5 144.833,119.5 143.5,119.5C 143.5,120.833 143.5,122.167 143.5,123.5C 144.5,123.5 145.5,123.5 146.5,123.5C 147.498,130.138 147.665,136.805 147,143.5C 146.612,144.428 145.945,145.095 145,145.5C 142.443,142.819 141.276,143.485 141.5,147.5C 141.028,149.932 141.028,152.265 141.5,154.5C 136.88,155.493 132.214,155.827 127.5,155.5C 130.403,153.896 133.737,152.896 137.5,152.5C 130.532,151.503 123.532,151.17 116.5,151.5C 116.5,150.167 116.5,148.833 116.5,147.5C 113.833,147.5 111.167,147.5 108.5,147.5C 108.195,145.081 108.195,142.414 108.5,139.5C 105.833,139.5 103.167,139.5 100.5,139.5C 100.5,136.833 100.5,134.167 100.5,131.5C 103.698,132.036 106.365,131.369 108.5,129.5C 109.5,129.5 110.5,129.5 111.5,129.5C 111.5,128.167 111.5,126.833 111.5,125.5C 115,125.39 118.334,124.557 121.5,123C 120.833,122.667 120.167,122.333 119.5,122C 121.107,120.951 121.773,119.451 121.5,117.5C 127.904,117.376 134.237,116.71 140.5,115.5C 140.5,107.5 140.5,99.5 140.5,91.5C 143.167,91.5 145.833,91.5 148.5,91.5C 148.5,86.8333 148.5,82.1667 148.5,77.5 Z"></path></g>
<g><path style="opacity:1" fill="#f8c363" d="M 150.5,115.5 C 152.167,115.5 153.833,115.5 155.5,115.5C 155.5,125.5 155.5,135.5 155.5,145.5C 153.5,145.5 151.5,145.5 149.5,145.5C 149.501,135.486 149.834,125.486 150.5,115.5 Z"></path></g>
<g><path style="opacity:1" fill="#955b41" d="M 92.5,131.5 C 89.8333,131.5 87.1667,131.5 84.5,131.5C 84.5,128.833 84.5,126.167 84.5,123.5C 87.1667,123.5 89.8333,123.5 92.5,123.5C 92.5,126.167 92.5,128.833 92.5,131.5 Z"></path></g>
<g><path style="opacity:1" fill="#965c45" d="M 92.5,131.5 C 95.1667,131.5 97.8333,131.5 100.5,131.5C 100.5,134.167 100.5,136.833 100.5,139.5C 97.8333,139.5 95.1667,139.5 92.5,139.5C 92.5,138.833 92.5,138.167 92.5,137.5C 92.5,135.5 92.5,133.5 92.5,131.5 Z"></path></g>
<g><path style="opacity:0.004" fill="#eff0ef" d="M 166.5,147.5 C 167.833,148.167 167.833,148.167 166.5,147.5 Z"></path></g>
<g><path style="opacity:0.012" fill="#e7f8ec" d="M 32.5,148.5 C 31.8333,149.167 31.8333,149.167 32.5,148.5 Z"></path></g>
<g><path style="opacity:1" fill="#161314" d="M 36.5,147.5 C 39.1667,147.5 41.8333,147.5 44.5,147.5C 44.5,152.833 44.5,158.167 44.5,163.5C 43.1667,163.833 41.8333,164.167 40.5,164.5C 40.5,163.833 40.1667,163.5 39.5,163.5C 38.5,163.5 37.5,163.5 36.5,163.5C 35.2711,158.521 35.2711,153.187 36.5,147.5 Z"></path></g>
<g><path style="opacity:1" fill="#070203" d="M 156.5,147.5 C 156.5,152.833 156.5,158.167 156.5,163.5C 153.833,163.5 151.167,163.5 148.5,163.5C 148.5,158.167 148.5,152.833 148.5,147.5C 151.167,147.5 153.833,147.5 156.5,147.5 Z"></path></g>
<g><path style="opacity:0.004" fill="#eff1f2" d="M 157.5,150.5 C 158.833,151.167 158.833,151.167 157.5,150.5 Z"></path></g>
<g><path style="opacity:1" fill="#f5c366" d="M 92.5,139.5 C 95.1667,139.5 97.8333,139.5 100.5,139.5C 103.167,139.5 105.833,139.5 108.5,139.5C 108.195,142.414 108.195,145.081 108.5,147.5C 108.5,150.167 108.5,152.833 108.5,155.5C 111.167,155.5 113.833,155.5 116.5,155.5C 120.167,155.5 123.833,155.5 127.5,155.5C 132.214,155.827 136.88,155.493 141.5,154.5C 141.028,152.265 141.028,149.932 141.5,147.5C 143.167,147.5 144.833,147.5 146.5,147.5C 146.742,152.953 146.742,158.287 146.5,163.5C 144.5,163.5 142.5,163.5 140.5,163.5C 140.5,166.167 140.5,168.833 140.5,171.5C 135.167,171.5 129.833,171.5 124.5,171.5C 124.5,174.167 124.5,176.833 124.5,179.5C 123.833,179.5 123.167,179.5 122.5,179.5C 122.5,176.833 122.5,174.167 122.5,171.5C 118.116,171.174 113.783,171.508 109.5,172.5C 107.257,174.593 106.923,176.926 108.5,179.5C 108.5,182.167 108.5,184.833 108.5,187.5C 108.167,187.5 107.833,187.5 107.5,187.5C 107.5,184.833 107.5,182.167 107.5,179.5C 100.5,179.5 93.5,179.5 86.5,179.5C 86.5,182.167 86.5,184.833 86.5,187.5C 85.8333,187.5 85.1667,187.5 84.5,187.5C 84.5,184.833 84.5,182.167 84.5,179.5C 84.7923,177.043 84.7923,174.376 84.5,171.5C 79.6257,171.642 74.959,170.976 70.5,169.5C 70.5,172.833 70.5,176.167 70.5,179.5C 69.8333,179.5 69.1667,179.5 68.5,179.5C 68.5,176.833 68.5,174.167 68.5,171.5C 63.1667,171.5 57.8333,171.5 52.5,171.5C 52.5,168.833 52.5,166.167 52.5,163.5C 49.8333,163.5 47.1667,163.5 44.5,163.5C 44.5,158.167 44.5,152.833 44.5,147.5C 47.1667,147.5 49.8333,147.5 52.5,147.5C 53.2541,150.078 53.2541,152.744 52.5,155.5C 60.5277,155.831 68.5277,155.498 76.5,154.5C 76.8333,152.5 77.1667,150.5 77.5,148.5C 79.396,147.534 81.396,147.201 83.5,147.5C 82.5203,140.62 85.5203,137.953 92.5,139.5 Z"></path></g>
<g><path style="opacity:1" fill="#0d0103" d="M 108.5,155.5 C 108.5,158.167 108.5,160.833 108.5,163.5C 100.5,163.5 92.5,163.5 84.5,163.5C 84.5,160.833 84.5,158.167 84.5,155.5C 92.5,155.5 100.5,155.5 108.5,155.5 Z"></path></g>
<g><path style="opacity:1" fill="#fcdcdb" d="M 116.5,151.5 C 123.532,151.17 130.532,151.503 137.5,152.5C 133.737,152.896 130.403,153.896 127.5,155.5C 123.833,155.5 120.167,155.5 116.5,155.5C 116.5,154.167 116.5,152.833 116.5,151.5 Z"></path></g>
<g><path style="opacity:1" fill="#0b0303" d="M 108.5,147.5 C 111.167,147.5 113.833,147.5 116.5,147.5C 116.5,148.833 116.5,150.167 116.5,151.5C 116.5,152.833 116.5,154.167 116.5,155.5C 113.833,155.5 111.167,155.5 108.5,155.5C 108.5,152.833 108.5,150.167 108.5,147.5 Z"></path></g>
<g><path style="opacity:0.004" fill="#f0f5ee" d="M 157.5,162.5 C 157.897,161.475 158.563,161.308 159.5,162C 158.906,162.464 158.239,162.631 157.5,162.5 Z"></path></g>
<g><path style="opacity:1" fill="#f6fbf3" d="M 36.5,164.5 C 36.5,164.167 36.5,163.833 36.5,163.5C 37.5,163.5 38.5,163.5 39.5,163.5C 39.5,163.833 39.5,164.167 39.5,164.5C 38.5,165.833 37.5,165.833 36.5,164.5 Z"></path></g>
<g><path style="opacity:0.008" fill="#eff1ea" d="M 158.5,163.5 C 159.833,164.167 159.833,164.167 158.5,163.5 Z"></path></g>
<g><path style="opacity:0.004" fill="#f5fced" d="M 36.5,164.5 C 35.8333,165.167 35.8333,165.167 36.5,164.5 Z"></path></g>
<g><path style="opacity:0.004" fill="#eef2fa" d="M 39.5,164.5 C 39.8333,164.5 40.1667,164.5 40.5,164.5C 40.3147,165.17 39.9813,165.17 39.5,164.5 Z"></path></g>
<g><path style="opacity:0.004" fill="#f1f4ee" d="M 156.5,164.5 C 157.833,165.167 157.833,165.167 156.5,164.5 Z"></path></g>
<g><path style="opacity:1" fill="#12090a" d="M 44.5,163.5 C 47.1667,163.5 49.8333,163.5 52.5,163.5C 52.5,166.167 52.5,168.833 52.5,171.5C 49.9997,172.123 47.4997,172.457 45,172.5C 43.9204,169.386 43.7537,166.386 44.5,163.5 Z"></path></g>
<g><path style="opacity:1" fill="#0c0709" d="M 146.5,163.5 C 147.167,163.5 147.833,163.5 148.5,163.5C 148.198,166.059 148.532,168.393 149.5,170.5C 149.217,171.289 148.717,171.956 148,172.5C 145.619,171.565 143.119,171.232 140.5,171.5C 140.5,168.833 140.5,166.167 140.5,163.5C 142.5,163.5 144.5,163.5 146.5,163.5 Z"></path></g>
<g><path style="opacity:0.004" fill="#f3faed" d="M 36.5,166.5 C 37.8333,167.167 37.8333,167.167 36.5,166.5 Z"></path></g>
<g><path style="opacity:0.004" fill="#ecf2f4" d="M 149.5,166.5 C 150.833,167.167 150.833,167.167 149.5,166.5 Z"></path></g>
<g><path style="opacity:0.01" fill="#f0f8ec" d="M 149.5,170.5 C 149.511,167.999 150.178,167.832 151.5,170C 150.906,170.464 150.239,170.631 149.5,170.5 Z"></path></g>
<g><path style="opacity:0.004" fill="#f0eff1" d="M 150.5,171.5 C 151.833,172.167 151.833,172.167 150.5,171.5 Z"></path></g>
<g><path style="opacity:0.008" fill="#f4f5ea" d="M 41.5,173.5 C 42.8333,174.167 42.8333,174.167 41.5,173.5 Z"></path></g>
<g><path style="opacity:0.004" fill="#fafdef" d="M 45.5,173.5 C 46.8333,174.167 46.8333,174.167 45.5,173.5 Z"></path></g>
<g><path style="opacity:1" fill="#0f0d0d" d="M 52.5,171.5 C 57.8333,171.5 63.1667,171.5 68.5,171.5C 68.5,174.167 68.5,176.833 68.5,179.5C 67.1667,179.833 65.8333,180.167 64.5,180.5C 60.7674,179.179 56.9341,179.179 53,180.5C 51.9204,177.386 51.7537,174.386 52.5,171.5 Z"></path></g>
<g><path style="opacity:1" fill="#060103" d="M 140.5,171.5 C 140.5,174.167 140.5,176.833 140.5,179.5C 135.167,179.5 129.833,179.5 124.5,179.5C 124.5,176.833 124.5,174.167 124.5,171.5C 129.833,171.5 135.167,171.5 140.5,171.5 Z"></path></g>
<g><path style="opacity:0.004" fill="#f6effd" d="M 150.5,173.5 C 151.833,174.167 151.833,174.167 150.5,173.5 Z"></path></g>
<g><path style="opacity:0.008" fill="#f6f9eb" d="M 45.5,174.5 C 44.8333,175.167 44.8333,175.167 45.5,174.5 Z"></path></g>
<g><path style="opacity:0.035" fill="#f0fae4" d="M 141.5,173.5 C 143.337,173.639 143.67,174.306 142.5,175.5C 141.702,175.043 141.369,174.376 141.5,173.5 Z"></path></g>
<g><path style="opacity:1" fill="#f3b841" d="M 84.5,179.5 C 79.8333,179.5 75.1667,179.5 70.5,179.5C 70.5,176.167 70.5,172.833 70.5,169.5C 74.959,170.976 79.6257,171.642 84.5,171.5C 84.7923,174.376 84.7923,177.043 84.5,179.5 Z"></path></g>
<g><path style="opacity:1" fill="#f3b940" d="M 122.5,179.5 C 117.833,179.5 113.167,179.5 108.5,179.5C 106.923,176.926 107.257,174.593 109.5,172.5C 113.783,171.508 118.116,171.174 122.5,171.5C 122.5,174.167 122.5,176.833 122.5,179.5 Z"></path></g>
<g><path style="opacity:0.004" fill="#eff0ef" d="M 142.5,179.5 C 143.833,180.167 143.833,180.167 142.5,179.5 Z"></path></g>
<g><path style="opacity:0.008" fill="#eaf1fe" d="M 64.5,180.5 C 63.8333,181.167 63.8333,181.167 64.5,180.5 Z"></path></g>
<g><path style="opacity:1" fill="#080303" d="M 108.5,179.5 C 113.167,179.5 117.833,179.5 122.5,179.5C 123.167,179.5 123.833,179.5 124.5,179.5C 124.5,181.833 124.5,184.167 124.5,186.5C 124.5,186.833 124.5,187.167 124.5,187.5C 124.5,187.833 124.5,188.167 124.5,188.5C 119.26,187.551 113.927,187.218 108.5,187.5C 108.5,184.833 108.5,182.167 108.5,179.5 Z"></path></g>
<g><path style="opacity:0.009" fill="#fefbeb" d="M 68.5,183.5 C 68.5,183.833 68.5,184.167 68.5,184.5C 67.5416,184.953 66.7083,185.619 66,186.5C 65.0754,185.953 64.2421,185.287 63.5,184.5C 65.0453,183.548 66.712,183.215 68.5,183.5 Z"></path></g>
<g><path style="opacity:1" fill="#060507" d="M 68.5,179.5 C 69.1667,179.5 69.8333,179.5 70.5,179.5C 75.1667,179.5 79.8333,179.5 84.5,179.5C 84.5,182.167 84.5,184.833 84.5,187.5C 83.1667,187.5 81.8333,187.5 80.5,187.5C 76.5633,187.207 72.73,187.54 69,188.5C 68.51,187.207 68.3433,185.873 68.5,184.5C 68.5,184.167 68.5,183.833 68.5,183.5C 68.5,182.167 68.5,180.833 68.5,179.5 Z"></path></g>
<g><path style="opacity:1" fill="#f5b83a" d="M 107.5,187.5 C 100.5,187.5 93.5,187.5 86.5,187.5C 86.5,184.833 86.5,182.167 86.5,179.5C 93.5,179.5 100.5,179.5 107.5,179.5C 107.5,182.167 107.5,184.833 107.5,187.5 Z"></path></g>
<g><path style="opacity:1" fill="#f6f7ed" d="M 125.5,188.5 C 125.5,187.833 125.167,187.5 124.5,187.5C 124.5,187.167 124.5,186.833 124.5,186.5C 125.423,185.697 126.423,185.53 127.5,186C 126.167,186.667 126.167,187.333 127.5,188C 126.906,188.464 126.239,188.631 125.5,188.5 Z"></path></g>
<g><path style="opacity:1" fill="#070507" d="M 84.5,187.5 C 85.1667,187.5 85.8333,187.5 86.5,187.5C 93.5,187.5 100.5,187.5 107.5,187.5C 107.833,187.5 108.167,187.5 108.5,187.5C 108.5,190.167 108.5,192.833 108.5,195.5C 100.58,195.185 92.747,195.518 85,196.5C 84.7489,194.567 84.2489,192.734 83.5,191C 84.056,190.617 84.3893,190.117 84.5,189.5C 84.5,188.833 84.5,188.167 84.5,187.5 Z"></path></g>
<g><path style="opacity:1" fill="#feeefd" d="M 80.5,187.5 C 81.8333,187.5 83.1667,187.5 84.5,187.5C 84.5,188.167 84.5,188.833 84.5,189.5C 83.5041,189.414 82.6708,189.748 82,190.5C 79.8424,189.95 79.3424,188.95 80.5,187.5 Z"></path></g>
<g><path style="opacity:0.004" fill="#edfcfe" d="M 110.5,188.5 C 111.833,189.167 111.833,189.167 110.5,188.5 Z"></path></g>
<g><path style="opacity:0.004" fill="#ffefff" d="M 120.5,189.5 C 120.897,188.475 121.563,188.308 122.5,189C 121.906,189.464 121.239,189.631 120.5,189.5 Z"></path></g>
<g><path style="opacity:0.008" fill="#feecf6" d="M 124.5,188.5 C 124.833,188.5 125.167,188.5 125.5,188.5C 125.315,189.17 124.981,189.17 124.5,188.5 Z"></path></g>
<g><path style="opacity:0.004" fill="#fbffee" d="M 115.5,189.5 C 118.797,189.329 119.131,189.995 116.5,191.5C 115.702,191.043 115.369,190.376 115.5,189.5 Z"></path></g>
<g><path style="opacity:0.012" fill="#e8f9eb" d="M 126.5,189.5 C 127.833,190.167 127.833,190.167 126.5,189.5 Z"></path></g>
<g><path style="opacity:0.008" fill="#f5f8ea" d="M 109.5,190.5 C 110.833,191.167 110.833,191.167 109.5,190.5 Z"></path></g>
<g><path style="opacity:0.004" fill="#ecfdef" d="M 126.5,190.5 C 125.833,191.167 125.833,191.167 126.5,190.5 Z"></path></g>
<g><path style="opacity:0.004" fill="#eff0ef" d="M 110.5,195.5 C 111.833,196.167 111.833,196.167 110.5,195.5 Z"></path></g>
</svg><style>@media (prefers-color-scheme: light) { :root { filter: none; } }
@media (prefers-color-scheme: dark) { :root { filter: none; } }
</style></svg>